<?xml version="1.0" standalone="no"?><!DOCTYPE svg PUBLIC "-//W3C//DTD SVG 1.1//EN" "http://www.w3.org/Graphics/SVG/1.1/DTD/svg11.dtd"><svg t="1712988260925" class="icon" viewBox="0 0 1248 1024" version="1.1" xmlns="http://www.w3.org/2000/svg" p-id="1354" xmlns:xlink="http://www.w3.org/1999/xlink" width="243.75" height="200"><path d="M1192.074766 889.272224c0 60.310729-49.338617 109.639776-109.63499 109.639776h-903.416823c-60.301159 0-109.639776-49.343402-109.639775-109.639776V155.09772C69.383178 94.801346 118.726579 45.457944 179.022953 45.457944h903.416823c60.310729 0 109.634991 49.343402 109.63499 109.639776v734.174504z" fill="#BEBECC" p-id="1355"></path><path d="M1082.439776 1018.052187h-903.416823c-71.010093 0-128.779963-57.769869-128.779962-128.779963V155.09772C50.242991 84.087626 108.01286 26.317757 179.022953 26.317757h903.416823c71.010093 0 128.775178 57.769869 128.775177 128.779963v734.174504c0 71.010093-57.765084 128.779963-128.775177 128.779963zM179.022953 64.598131C129.119701 64.598131 88.523364 105.194467 88.523364 155.09772v734.174504c0 49.903252 40.596336 90.499589 90.499589 90.499589h903.416823c49.898467 0 90.494804-40.596336 90.494803-90.499589V155.09772c0-49.903252-40.596336-90.499589-90.494803-90.499589h-903.416823z" fill="#6E6E96" p-id="1356"></path><path d="M1103.733234 807.017271c0 50.343477-41.180112 91.528374-91.533159 91.528374H257.961869c-50.343477 0-91.528374-41.180112-91.528374-91.528374V224.858916c0-50.338692 41.194467-91.528374 91.528374-91.528374h754.242991c50.343477 0 91.533159 41.189682 91.533159 91.528374l-0.004785 582.158355z" fill="#7BC77E" p-id="1357"></path><path d="M1012.200075 917.685832H257.961869c-73.436112 0-110.668561-37.232449-110.668561-110.668561V224.858916c0-73.436112 37.232449-110.668561 110.668561-110.668561h754.242991c73.440897 0 110.673346 37.232449 110.673346 110.668561v582.158355c-0.004785 73.436112-37.242019 110.668561-110.678131 110.668561zM257.961869 152.470729c-60.076262 0-72.388187 28.935178-72.388187 72.388187v582.158355c0 43.448224 12.311925 72.388187 72.388187 72.388187h754.238206c60.081047 0 72.392972-28.939963 72.392972-72.388187l0.004785-582.158355c0-43.453009-12.311925-72.388187-72.392972-72.388187H257.961869z" fill="#6E6E96" p-id="1358"></path><path d="M375.128523 224.078953h4.182131v585.20643h-4.182131zM477.935252 224.078953h4.182131v585.20643h-4.182131zM580.741981 224.078953h4.182131v585.20643h-4.182131zM683.553495 224.078953h4.186916v585.20643h-4.186916zM786.365009 224.078953h4.177346v585.20643h-4.177346zM889.171738 224.078953h4.182131v585.20643h-4.182131z" fill="#FFFA5F" opacity=".34" p-id="1359"></path><path d="M275.733533 317.97114h715.546317v3.158131H275.733533zM275.733533 415.160224h715.546317v3.158131H275.733533zM275.733533 512.354093h715.546317v3.148561H275.733533zM275.733533 609.533607h715.546317v3.158131H275.733533zM275.733533 706.717907h715.546317v3.15813H275.733533z" fill="#FFFA5F" opacity=".34" p-id="1360"></path><path d="M376.540112 321.047925m-12.34542 0a12.345421 12.345421 0 1 0 24.690841 0 12.345421 12.345421 0 1 0-24.690841 0Z" fill="#FFFA5F" opacity=".167" p-id="1361"></path><path d="M376.540112 321.047925m-10.957757 0a10.957757 10.957757 0 1 0 21.915514 0 10.957757 10.957757 0 1 0-21.915514 0Z" fill="#FFFA5F" opacity=".333" p-id="1362"></path><path d="M376.540112 321.047925m-9.570093 0a9.570093 9.570093 0 1 0 19.140187 0 9.570093 9.570093 0 1 0-19.140187 0Z" fill="#FFFA5F" opacity=".5" p-id="1363"></path><path d="M376.540112 321.047925m-8.18243 0a8.18243 8.18243 0 1 0 16.36486 0 8.18243 8.18243 0 1 0-16.36486 0Z" fill="#FFFA5F" opacity=".667" p-id="1364"></path><path d="M376.540112 321.047925m-6.799551 0a6.799551 6.799551 0 1 0 13.599103 0 6.799551 6.799551 0 1 0-13.599103 0Z" fill="#FFFA5F" opacity=".833" p-id="1365"></path><path d="M376.540112 321.05271m-5.411888 0a5.411888 5.411888 0 1 0 10.823776 0 5.411888 5.411888 0 1 0-10.823776 0Z" fill="#FFFA5F" opacity=".74" p-id="1366"></path><path d="M891.34415 321.047925m-12.340636 0a12.340636 12.340636 0 1 0 24.681271 0 12.340636 12.340636 0 1 0-24.681271 0Z" fill="#FFFA5F" opacity=".167" p-id="1367"></path><path d="M891.34415 321.047925m-10.957757 0a10.957757 10.957757 0 1 0 21.915514 0 10.957757 10.957757 0 1 0-21.915514 0Z" fill="#FFFA5F" opacity=".333" p-id="1368"></path><path d="M891.34415 321.047925m-9.570094 0a9.570093 9.570093 0 1 0 19.140187 0 9.570093 9.570093 0 1 0-19.140187 0Z" fill="#FFFA5F" opacity=".5" p-id="1369"></path><path d="M891.34415 321.047925m-8.18243 0a8.18243 8.18243 0 1 0 16.364859 0 8.18243 8.18243 0 1 0-16.364859 0Z" fill="#FFFA5F" opacity=".667" p-id="1370"></path><path d="M891.34415 321.047925m-6.799552 0a6.799551 6.799551 0 1 0 13.599103 0 6.799551 6.799551 0 1 0-13.599103 0Z" fill="#FFFA5F" opacity=".833" p-id="1371"></path><path d="M891.34415 321.05271m-5.411888 0a5.411888 5.411888 0 1 0 10.823775 0 5.411888 5.411888 0 1 0-10.823775 0Z" fill="#FFFA5F" opacity=".74" p-id="1372"></path><path d="M789.355664 321.047925m-12.340636 0a12.340636 12.340636 0 1 0 24.681271 0 12.340636 12.340636 0 1 0-24.681271 0Z" fill="#FFFA5F" opacity=".167" p-id="1373"></path><path d="M789.355664 321.047925m-10.957757 0a10.957757 10.957757 0 1 0 21.915514 0 10.957757 10.957757 0 1 0-21.915514 0Z" fill="#FFFA5F" opacity=".333" p-id="1374"></path><path d="M789.355664 321.047925m-9.570094 0a9.570093 9.570093 0 1 0 19.140187 0 9.570093 9.570093 0 1 0-19.140187 0Z" fill="#FFFA5F" opacity=".5" p-id="1375"></path><path d="M789.355664 321.047925m-8.18243 0a8.18243 8.18243 0 1 0 16.364859 0 8.18243 8.18243 0 1 0-16.364859 0Z" fill="#FFFA5F" opacity=".667" p-id="1376"></path><path d="M789.355664 321.047925m-6.799552 0a6.799551 6.799551 0 1 0 13.599103 0 6.799551 6.799551 0 1 0-13.599103 0Z" fill="#FFFA5F" opacity=".833" p-id="1377"></path><path d="M789.355664 321.05271m-5.411888 0a5.411888 5.411888 0 1 0 10.823775 0 5.411888 5.411888 0 1 0-10.823775 0Z" fill="#FFFA5F" opacity=".74" p-id="1378"></path><path d="M685.122991 321.047925m-12.340636 0a12.340636 12.340636 0 1 0 24.681271 0 12.340636 12.340636 0 1 0-24.681271 0Z" fill="#FFFA5F" opacity=".167" p-id="1379"></path><path d="M685.122991 321.047925m-10.957757 0a10.957757 10.957757 0 1 0 21.915514 0 10.957757 10.957757 0 1 0-21.915514 0Z" fill="#FFFA5F" opacity=".333" p-id="1380"></path><path d="M685.122991 321.047925m-9.570094 0a9.570093 9.570093 0 1 0 19.140187 0 9.570093 9.570093 0 1 0-19.140187 0Z" fill="#FFFA5F" opacity=".5" p-id="1381"></path><path d="M685.122991 321.047925m-8.18243 0a8.18243 8.18243 0 1 0 16.36486 0 8.18243 8.18243 0 1 0-16.36486 0Z" fill="#FFFA5F" opacity=".667" p-id="1382"></path><path d="M685.122991 321.047925m-6.799552 0a6.799551 6.799551 0 1 0 13.599103 0 6.799551 6.799551 0 1 0-13.599103 0Z" fill="#FFFA5F" opacity=".833" p-id="1383"></path><path d="M685.122991 321.05271m-5.411888 0a5.411888 5.411888 0 1 0 10.823776 0 5.411888 5.411888 0 1 0-10.823776 0Z" fill="#FFFA5F" opacity=".74" p-id="1384"></path><path d="M583.19671 321.047925m-12.340635 0a12.340636 12.340636 0 1 0 24.681271 0 12.340636 12.340636 0 1 0-24.681271 0Z" fill="#FFFA5F" opacity=".167" p-id="1385"></path><path d="M583.19671 321.047925m-10.957757 0a10.957757 10.957757 0 1 0 21.915514 0 10.957757 10.957757 0 1 0-21.915514 0Z" fill="#FFFA5F" opacity=".333" p-id="1386"></path><path d="M583.19671 321.047925m-9.570093 0a9.570093 9.570093 0 1 0 19.140187 0 9.570093 9.570093 0 1 0-19.140187 0Z" fill="#FFFA5F" opacity=".5" p-id="1387"></path><path d="M583.19671 321.047925m-8.18243 0a8.18243 8.18243 0 1 0 16.36486 0 8.18243 8.18243 0 1 0-16.36486 0Z" fill="#FFFA5F" opacity=".667" p-id="1388"></path><path d="M583.19671 321.047925m-6.799551 0a6.799551 6.799551 0 1 0 13.599103 0 6.799551 6.799551 0 1 0-13.599103 0Z" fill="#FFFA5F" opacity=".833" p-id="1389"></path><path d="M583.19671 321.05271m-5.411888 0a5.411888 5.411888 0 1 0 10.823776 0 5.411888 5.411888 0 1 0-10.823776 0Z" fill="#FFFA5F" opacity=".74" p-id="1390"></path><path d="M479.442542 321.047925m-12.340635 0a12.340636 12.340636 0 1 0 24.681271 0 12.340636 12.340636 0 1 0-24.681271 0Z" fill="#FFFA5F" opacity=".167" p-id="1391"></path><path d="M479.442542 321.047925m-10.957757 0a10.957757 10.957757 0 1 0 21.915514 0 10.957757 10.957757 0 1 0-21.915514 0Z" fill="#FFFA5F" opacity=".333" p-id="1392"></path><path d="M479.442542 321.047925m-9.570093 0a9.570093 9.570093 0 1 0 19.140187 0 9.570093 9.570093 0 1 0-19.140187 0Z" fill="#FFFA5F" opacity=".5" p-id="1393"></path><path d="M479.447327 321.047925m-8.18243 0a8.18243 8.18243 0 1 0 16.36486 0 8.18243 8.18243 0 1 0-16.36486 0Z" fill="#FFFA5F" opacity=".667" p-id="1394"></path><path d="M479.442542 321.047925m-6.799551 0a6.799551 6.799551 0 1 0 13.599102 0 6.799551 6.799551 0 1 0-13.599102 0Z" fill="#FFFA5F" opacity=".833" p-id="1395"></path><path d="M479.447327 321.05271m-5.411888 0a5.411888 5.411888 0 1 0 10.823776 0 5.411888 5.411888 0 1 0-10.823776 0Z" fill="#FFFA5F" opacity=".74" p-id="1396"></path><path d="M376.190804 416.667514m-12.345421 0a12.345421 12.345421 0 1 0 24.690841 0 12.345421 12.345421 0 1 0-24.690841 0Z" fill="#FFFA5F" opacity=".167" p-id="1397"></path><path d="M376.190804 416.667514m-10.957757 0a10.957757 10.957757 0 1 0 21.915514 0 10.957757 10.957757 0 1 0-21.915514 0Z" fill="#FFFA5F" opacity=".333" p-id="1398"></path><path d="M376.190804 416.672299m-9.570094 0a9.570093 9.570093 0 1 0 19.140187 0 9.570093 9.570093 0 1 0-19.140187 0Z" fill="#FFFA5F" opacity=".5" p-id="1399"></path><path d="M376.190804 416.672299m-8.18243 0a8.18243 8.18243 0 1 0 16.36486 0 8.18243 8.18243 0 1 0-16.36486 0Z" fill="#FFFA5F" opacity=".667" p-id="1400"></path><path d="M376.190804 416.667514m-6.799552 0a6.799551 6.799551 0 1 0 13.599103 0 6.799551 6.799551 0 1 0-13.599103 0Z" fill="#FFFA5F" opacity=".833" p-id="1401"></path><path d="M376.190804 416.672299m-5.411888 0a5.411888 5.411888 0 1 0 10.823776 0 5.411888 5.411888 0 1 0-10.823776 0Z" fill="#FFFA5F" opacity=".74" p-id="1402"></path><path d="M890.999626 416.667514m-12.34542 0a12.345421 12.345421 0 1 0 24.690841 0 12.345421 12.345421 0 1 0-24.690841 0Z" fill="#FFFA5F" opacity=".167" p-id="1403"></path><path d="M890.999626 416.667514m-10.952972 0a10.952972 10.952972 0 1 0 21.905944 0 10.952972 10.952972 0 1 0-21.905944 0Z" fill="#FFFA5F" opacity=".333" p-id="1404"></path><path d="M890.999626 416.672299m-9.570093 0a9.570093 9.570093 0 1 0 19.140187 0 9.570093 9.570093 0 1 0-19.140187 0Z" fill="#FFFA5F" opacity=".5" p-id="1405"></path><path d="M890.999626 416.672299m-8.18243 0a8.18243 8.18243 0 1 0 16.36486 0 8.18243 8.18243 0 1 0-16.36486 0Z" fill="#FFFA5F" opacity=".667" p-id="1406"></path><path d="M890.999626 416.667514m-6.799551 0a6.799551 6.799551 0 1 0 13.599103 0 6.799551 6.799551 0 1 0-13.599103 0Z" fill="#FFFA5F" opacity=".833" p-id="1407"></path><path d="M890.999626 416.667514m-5.416673 0a5.416673 5.416673 0 1 0 10.833346 0 5.416673 5.416673 0 1 0-10.833346 0Z" fill="#FFFA5F" opacity=".74" p-id="1408"></path><path d="M789.01114 416.667514m-12.34542 0a12.345421 12.345421 0 1 0 24.690841 0 12.345421 12.345421 0 1 0-24.690841 0Z" fill="#FFFA5F" opacity=".167" p-id="1409"></path><path d="M789.01114 416.667514m-10.952972 0a10.952972 10.952972 0 1 0 21.905944 0 10.952972 10.952972 0 1 0-21.905944 0Z" fill="#FFFA5F" opacity=".333" p-id="1410"></path><path d="M789.01114 416.672299m-9.570093 0a9.570093 9.570093 0 1 0 19.140187 0 9.570093 9.570093 0 1 0-19.140187 0Z" fill="#FFFA5F" opacity=".5" p-id="1411"></path><path d="M789.01114 416.672299m-8.18243 0a8.18243 8.18243 0 1 0 16.36486 0 8.18243 8.18243 0 1 0-16.36486 0Z" fill="#FFFA5F" opacity=".667" p-id="1412"></path><path d="M789.01114 416.667514m-6.799551 0a6.799551 6.799551 0 1 0 13.599103 0 6.799551 6.799551 0 1 0-13.599103 0Z" fill="#FFFA5F" opacity=".833" p-id="1413"></path><path d="M789.01114 416.667514m-5.416673 0a5.416673 5.416673 0 1 0 10.833346 0 5.416673 5.416673 0 1 0-10.833346 0Z" fill="#FFFA5F" opacity=".74" p-id="1414"></path><path d="M684.764112 416.667514m-12.34542 0a12.345421 12.345421 0 1 0 24.690841 0 12.345421 12.345421 0 1 0-24.690841 0Z" fill="#FFFA5F" opacity=".167" p-id="1415"></path><path d="M684.764112 416.667514m-10.957757 0a10.957757 10.957757 0 1 0 21.915514 0 10.957757 10.957757 0 1 0-21.915514 0Z" fill="#FFFA5F" opacity=".333" p-id="1416"></path><path d="M684.764112 416.672299m-9.570093 0a9.570093 9.570093 0 1 0 19.140187 0 9.570093 9.570093 0 1 0-19.140187 0Z" fill="#FFFA5F" opacity=".5" p-id="1417"></path><path d="M684.764112 416.672299m-8.18243 0a8.18243 8.18243 0 1 0 16.36486 0 8.18243 8.18243 0 1 0-16.36486 0Z" fill="#FFFA5F" opacity=".667" p-id="1418"></path><path d="M684.764112 416.667514m-6.799551 0a6.799551 6.799551 0 1 0 13.599103 0 6.799551 6.799551 0 1 0-13.599103 0Z" fill="#FFFA5F" opacity=".833" p-id="1419"></path><path d="M684.764112 416.672299m-5.411888 0a5.411888 5.411888 0 1 0 10.823776 0 5.411888 5.411888 0 1 0-10.823776 0Z" fill="#FFFA5F" opacity=".74" p-id="1420"></path><path d="M582.842617 416.667514m-12.345421 0a12.345421 12.345421 0 1 0 24.690841 0 12.345421 12.345421 0 1 0-24.690841 0Z" fill="#FFFA5F" opacity=".167" p-id="1421"></path><path d="M582.842617 416.667514m-10.957757 0a10.957757 10.957757 0 1 0 21.915514 0 10.957757 10.957757 0 1 0-21.915514 0Z" fill="#FFFA5F" opacity=".333" p-id="1422"></path><path d="M582.842617 416.672299m-9.570094 0a9.570093 9.570093 0 1 0 19.140187 0 9.570093 9.570093 0 1 0-19.140187 0Z" fill="#FFFA5F" opacity=".5" p-id="1423"></path><path d="M582.842617 416.672299m-8.18243 0a8.18243 8.18243 0 1 0 16.36486 0 8.18243 8.18243 0 1 0-16.36486 0Z" fill="#FFFA5F" opacity=".667" p-id="1424"></path><path d="M582.842617 416.667514m-6.799552 0a6.799551 6.799551 0 1 0 13.599103 0 6.799551 6.799551 0 1 0-13.599103 0Z" fill="#FFFA5F" opacity=".833" p-id="1425"></path><path d="M582.842617 416.672299m-5.411888 0a5.411888 5.411888 0 1 0 10.823776 0 5.411888 5.411888 0 1 0-10.823776 0Z" fill="#FFFA5F" opacity=".74" p-id="1426"></path><path d="M479.088449 416.667514m-12.345421 0a12.345421 12.345421 0 1 0 24.690841 0 12.345421 12.345421 0 1 0-24.690841 0Z" fill="#FFFA5F" opacity=".167" p-id="1427"></path><path d="M479.088449 416.667514m-10.957757 0a10.957757 10.957757 0 1 0 21.915514 0 10.957757 10.957757 0 1 0-21.915514 0Z" fill="#FFFA5F" opacity=".333" p-id="1428"></path><path d="M479.088449 416.672299m-9.570094 0a9.570093 9.570093 0 1 0 19.140187 0 9.570093 9.570093 0 1 0-19.140187 0Z" fill="#FFFA5F" opacity=".5" p-id="1429"></path><path d="M479.098019 416.672299m-8.18243 0a8.18243 8.18243 0 1 0 16.36486 0 8.18243 8.18243 0 1 0-16.36486 0Z" fill="#FFFA5F" opacity=".667" p-id="1430"></path><path d="M479.088449 416.667514m-6.799552 0a6.799551 6.799551 0 1 0 13.599103 0 6.799551 6.799551 0 1 0-13.599103 0Z" fill="#FFFA5F" opacity=".833" p-id="1431"></path><path d="M479.098019 416.672299m-5.411888 0a5.411888 5.411888 0 1 0 10.823776 0 5.411888 5.411888 0 1 0-10.823776 0Z" fill="#FFFA5F" opacity=".74" p-id="1432"></path><path d="M376.540112 514.51215m-12.34542 0a12.345421 12.345421 0 1 0 24.690841 0 12.345421 12.345421 0 1 0-24.690841 0Z" fill="#FFFA5F" opacity=".167" p-id="1433"></path><path d="M376.540112 514.51215m-10.957757 0a10.957757 10.957757 0 1 0 21.915514 0 10.957757 10.957757 0 1 0-21.915514 0Z" fill="#FFFA5F" opacity=".333" p-id="1434"></path><path d="M376.540112 514.516935m-9.570093 0a9.570093 9.570093 0 1 0 19.140187 0 9.570093 9.570093 0 1 0-19.140187 0Z" fill="#FFFA5F" opacity=".5" p-id="1435"></path><path d="M376.540112 514.507364m-8.18243 0a8.18243 8.18243 0 1 0 16.36486 0 8.18243 8.18243 0 1 0-16.36486 0Z" fill="#FFFA5F" opacity=".667" p-id="1436"></path><path d="M376.540112 514.51215m-6.794766 0a6.794766 6.794766 0 1 0 13.589533 0 6.794766 6.794766 0 1 0-13.589533 0Z" fill="#FFFA5F" opacity=".833" p-id="1437"></path><path d="M376.540112 514.516935m-5.411888 0a5.411888 5.411888 0 1 0 10.823776 0 5.411888 5.411888 0 1 0-10.823776 0Z" fill="#FFFA5F" opacity=".74" p-id="1438"></path><path d="M891.34415 514.51215m-12.345421 0a12.345421 12.345421 0 1 0 24.690841 0 12.345421 12.345421 0 1 0-24.690841 0Z" fill="#FFFA5F" opacity=".167" p-id="1439"></path><path d="M891.34415 514.516935m-10.952972 0a10.952972 10.952972 0 1 0 21.905943 0 10.952972 10.952972 0 1 0-21.905943 0Z" fill="#FFFA5F" opacity=".333" p-id="1440"></path><path d="M891.34415 514.516935m-9.570094 0a9.570093 9.570093 0 1 0 19.140187 0 9.570093 9.570093 0 1 0-19.140187 0Z" fill="#FFFA5F" opacity=".5" p-id="1441"></path><path d="M891.34415 514.507364m-8.18243 0a8.18243 8.18243 0 1 0 16.364859 0 8.18243 8.18243 0 1 0-16.364859 0Z" fill="#FFFA5F" opacity=".667" p-id="1442"></path><path d="M891.34415 514.51215m-6.794767 0a6.794766 6.794766 0 1 0 13.589533 0 6.794766 6.794766 0 1 0-13.589533 0Z" fill="#FFFA5F" opacity=".833" p-id="1443"></path><path d="M891.34415 514.51215m-5.416673 0a5.416673 5.416673 0 1 0 10.833345 0 5.416673 5.416673 0 1 0-10.833345 0Z" fill="#FFFA5F" opacity=".74" p-id="1444"></path><path d="M789.355664 514.51215m-12.345421 0a12.345421 12.345421 0 1 0 24.690841 0 12.345421 12.345421 0 1 0-24.690841 0Z" fill="#FFFA5F" opacity=".167" p-id="1445"></path><path d="M789.355664 514.516935m-10.952972 0a10.952972 10.952972 0 1 0 21.905944 0 10.952972 10.952972 0 1 0-21.905944 0Z" fill="#FFFA5F" opacity=".333" p-id="1446"></path><path d="M789.355664 514.516935m-9.570094 0a9.570093 9.570093 0 1 0 19.140187 0 9.570093 9.570093 0 1 0-19.140187 0Z" fill="#FFFA5F" opacity=".5" p-id="1447"></path><path d="M789.355664 514.507364m-8.18243 0a8.18243 8.18243 0 1 0 16.364859 0 8.18243 8.18243 0 1 0-16.364859 0Z" fill="#FFFA5F" opacity=".667" p-id="1448"></path><path d="M789.355664 514.51215m-6.794767 0a6.794766 6.794766 0 1 0 13.589533 0 6.794766 6.794766 0 1 0-13.589533 0Z" fill="#FFFA5F" opacity=".833" p-id="1449"></path><path d="M789.355664 514.51215m-5.416673 0a5.416673 5.416673 0 1 0 10.833345 0 5.416673 5.416673 0 1 0-10.833345 0Z" fill="#FFFA5F" opacity=".74" p-id="1450"></path><path d="M685.122991 514.51215m-12.345421 0a12.345421 12.345421 0 1 0 24.690841 0 12.345421 12.345421 0 1 0-24.690841 0Z" fill="#FFFA5F" opacity=".167" p-id="1451"></path><path d="M685.122991 514.51215m-10.957757 0a10.957757 10.957757 0 1 0 21.915514 0 10.957757 10.957757 0 1 0-21.915514 0Z" fill="#FFFA5F" opacity=".333" p-id="1452"></path><path d="M685.122991 514.516935m-9.570094 0a9.570093 9.570093 0 1 0 19.140187 0 9.570093 9.570093 0 1 0-19.140187 0Z" fill="#FFFA5F" opacity=".5" p-id="1453"></path><path d="M685.122991 514.507364m-8.18243 0a8.18243 8.18243 0 1 0 16.36486 0 8.18243 8.18243 0 1 0-16.36486 0Z" fill="#FFFA5F" opacity=".667" p-id="1454"></path><path d="M685.122991 514.51215m-6.794767 0a6.794766 6.794766 0 1 0 13.589533 0 6.794766 6.794766 0 1 0-13.589533 0Z" fill="#FFFA5F" opacity=".833" p-id="1455"></path><path d="M685.122991 514.516935m-5.411888 0a5.411888 5.411888 0 1 0 10.823776 0 5.411888 5.411888 0 1 0-10.823776 0Z" fill="#FFFA5F" opacity=".74" p-id="1456"></path><path d="M583.19671 514.51215m-12.34542 0a12.345421 12.345421 0 1 0 24.690841 0 12.345421 12.345421 0 1 0-24.690841 0Z" fill="#FFFA5F" opacity=".167" p-id="1457"></path><path d="M583.19671 514.51215m-10.957757 0a10.957757 10.957757 0 1 0 21.915514 0 10.957757 10.957757 0 1 0-21.915514 0Z" fill="#FFFA5F" opacity=".333" p-id="1458"></path><path d="M583.19671 514.516935m-9.570093 0a9.570093 9.570093 0 1 0 19.140187 0 9.570093 9.570093 0 1 0-19.140187 0Z" fill="#FFFA5F" opacity=".5" p-id="1459"></path><path d="M583.19671 514.507364m-8.18243 0a8.18243 8.18243 0 1 0 16.36486 0 8.18243 8.18243 0 1 0-16.36486 0Z" fill="#FFFA5F" opacity=".667" p-id="1460"></path><path d="M583.19671 514.51215m-6.794766 0a6.794766 6.794766 0 1 0 13.589533 0 6.794766 6.794766 0 1 0-13.589533 0Z" fill="#FFFA5F" opacity=".833" p-id="1461"></path><path d="M583.19671 514.516935m-5.411888 0a5.411888 5.411888 0 1 0 10.823776 0 5.411888 5.411888 0 1 0-10.823776 0Z" fill="#FFFA5F" opacity=".74" p-id="1462"></path><path d="M479.442542 514.51215m-12.345421 0a12.345421 12.345421 0 1 0 24.690842 0 12.345421 12.345421 0 1 0-24.690842 0Z" fill="#FFFA5F" opacity=".167" p-id="1463"></path><path d="M479.442542 514.51215m-10.957757 0a10.957757 10.957757 0 1 0 21.915514 0 10.957757 10.957757 0 1 0-21.915514 0Z" fill="#FFFA5F" opacity=".333" p-id="1464"></path><path d="M479.442542 514.516935m-9.570093 0a9.570093 9.570093 0 1 0 19.140187 0 9.570093 9.570093 0 1 0-19.140187 0Z" fill="#FFFA5F" opacity=".5" p-id="1465"></path><path d="M479.442542 514.507364m-8.18243 0a8.18243 8.18243 0 1 0 16.36486 0 8.18243 8.18243 0 1 0-16.36486 0Z" fill="#FFFA5F" opacity=".667" p-id="1466"></path><path d="M479.442542 514.51215m-6.794766 0a6.794766 6.794766 0 1 0 13.589532 0 6.794766 6.794766 0 1 0-13.589532 0Z" fill="#FFFA5F" opacity=".833" p-id="1467"></path><path d="M479.442542 514.516935m-5.411888 0a5.411888 5.411888 0 1 0 10.823776 0 5.411888 5.411888 0 1 0-10.823776 0Z" fill="#FFFA5F" opacity=".74" p-id="1468"></path><path d="M375.597458 611.275364m-12.345421 0a12.345421 12.345421 0 1 0 24.690842 0 12.345421 12.345421 0 1 0-24.690842 0Z" fill="#FFFA5F" opacity=".167" p-id="1469"></path><path d="M375.597458 611.275364m-10.957757 0a10.957757 10.957757 0 1 0 21.915514 0 10.957757 10.957757 0 1 0-21.915514 0Z" fill="#FFFA5F" opacity=".333" p-id="1470"></path><path d="M375.597458 611.275364m-9.570094 0a9.570093 9.570093 0 1 0 19.140187 0 9.570093 9.570093 0 1 0-19.140187 0Z" fill="#FFFA5F" opacity=".5" p-id="1471"></path><path d="M375.597458 611.270579m-8.18243 0a8.18243 8.18243 0 1 0 16.36486 0 8.18243 8.18243 0 1 0-16.36486 0Z" fill="#FFFA5F" opacity=".667" p-id="1472"></path><path d="M375.597458 611.275364m-6.799551 0a6.799551 6.799551 0 1 0 13.599102 0 6.799551 6.799551 0 1 0-13.599102 0Z" fill="#FFFA5F" opacity=".833" p-id="1473"></path><path d="M375.597458 611.275364m-5.411888 0a5.411888 5.411888 0 1 0 10.823776 0 5.411888 5.411888 0 1 0-10.823776 0Z" fill="#FFFA5F" opacity=".74" p-id="1474"></path><path d="M890.39671 611.275364m-12.34542 0a12.345421 12.345421 0 1 0 24.690841 0 12.345421 12.345421 0 1 0-24.690841 0Z" fill="#FFFA5F" opacity=".167" p-id="1475"></path><path d="M890.39671 611.275364m-10.957757 0a10.957757 10.957757 0 1 0 21.915514 0 10.957757 10.957757 0 1 0-21.915514 0Z" fill="#FFFA5F" opacity=".333" p-id="1476"></path><path d="M890.38714 611.275364m-9.570093 0a9.570093 9.570093 0 1 0 19.140187 0 9.570093 9.570093 0 1 0-19.140187 0Z" fill="#FFFA5F" opacity=".5" p-id="1477"></path><path d="M890.38714 611.270579m-8.18243 0a8.18243 8.18243 0 1 0 16.36486 0 8.18243 8.18243 0 1 0-16.36486 0Z" fill="#FFFA5F" opacity=".667" p-id="1478"></path><path d="M890.39671 611.275364m-6.799551 0a6.799551 6.799551 0 1 0 13.599103 0 6.799551 6.799551 0 1 0-13.599103 0Z" fill="#FFFA5F" opacity=".833" p-id="1479"></path><path d="M890.39671 611.28015m-5.416673 0a5.416673 5.416673 0 1 0 10.833346 0 5.416673 5.416673 0 1 0-10.833346 0Z" fill="#FFFA5F" opacity=".74" p-id="1480"></path><path d="M788.413009 611.275364m-12.34542 0a12.345421 12.345421 0 1 0 24.690841 0 12.345421 12.345421 0 1 0-24.690841 0Z" fill="#FFFA5F" opacity=".167" p-id="1481"></path><path d="M788.413009 611.275364m-10.957757 0a10.957757 10.957757 0 1 0 21.915514 0 10.957757 10.957757 0 1 0-21.915514 0Z" fill="#FFFA5F" opacity=".333" p-id="1482"></path><path d="M788.403439 611.275364m-9.570093 0a9.570093 9.570093 0 1 0 19.140187 0 9.570093 9.570093 0 1 0-19.140187 0Z" fill="#FFFA5F" opacity=".5" p-id="1483"></path><path d="M788.403439 611.270579m-8.18243 0a8.18243 8.18243 0 1 0 16.36486 0 8.18243 8.18243 0 1 0-16.36486 0Z" fill="#FFFA5F" opacity=".667" p-id="1484"></path><path d="M788.413009 611.275364m-6.799551 0a6.799551 6.799551 0 1 0 13.599103 0 6.799551 6.799551 0 1 0-13.599103 0Z" fill="#FFFA5F" opacity=".833" p-id="1485"></path><path d="M788.413009 611.28015m-5.416673 0a5.416673 5.416673 0 1 0 10.833346 0 5.416673 5.416673 0 1 0-10.833346 0Z" fill="#FFFA5F" opacity=".74" p-id="1486"></path><path d="M684.161196 611.275364m-12.34542 0a12.345421 12.345421 0 1 0 24.690841 0 12.345421 12.345421 0 1 0-24.690841 0Z" fill="#FFFA5F" opacity=".167" p-id="1487"></path><path d="M684.165981 611.275364m-10.957757 0a10.957757 10.957757 0 1 0 21.915514 0 10.957757 10.957757 0 1 0-21.915514 0Z" fill="#FFFA5F" opacity=".333" p-id="1488"></path><path d="M684.165981 611.275364m-9.570093 0a9.570093 9.570093 0 1 0 19.140187 0 9.570093 9.570093 0 1 0-19.140187 0Z" fill="#FFFA5F" opacity=".5" p-id="1489"></path><path d="M684.165981 603.08815a8.18243 8.18243 0 1 1-0.014355 16.369644 8.18243 8.18243 0 0 1 0.014355-16.369644z" fill="#FFFA5F" opacity=".667" p-id="1490"></path><path d="M684.165981 611.275364m-6.799551 0a6.799551 6.799551 0 1 0 13.599103 0 6.799551 6.799551 0 1 0-13.599103 0Z" fill="#FFFA5F" opacity=".833" p-id="1491"></path><path d="M684.165981 611.275364m-5.411888 0a5.411888 5.411888 0 1 0 10.823776 0 5.411888 5.411888 0 1 0-10.823776 0Z" fill="#FFFA5F" opacity=".74" p-id="1492"></path><path d="M582.244486 611.275364m-12.345421 0a12.345421 12.345421 0 1 0 24.690842 0 12.345421 12.345421 0 1 0-24.690842 0Z" fill="#FFFA5F" opacity=".167" p-id="1493"></path><path d="M582.244486 611.275364m-10.957757 0a10.957757 10.957757 0 1 0 21.915514 0 10.957757 10.957757 0 1 0-21.915514 0Z" fill="#FFFA5F" opacity=".333" p-id="1494"></path><path d="M582.244486 611.275364m-9.570093 0a9.570093 9.570093 0 1 0 19.140186 0 9.570093 9.570093 0 1 0-19.140186 0Z" fill="#FFFA5F" opacity=".5" p-id="1495"></path><path d="M582.244486 611.270579m-8.18243 0a8.18243 8.18243 0 1 0 16.36486 0 8.18243 8.18243 0 1 0-16.36486 0Z" fill="#FFFA5F" opacity=".667" p-id="1496"></path><path d="M582.244486 611.275364m-6.799551 0a6.799551 6.799551 0 1 0 13.599102 0 6.799551 6.799551 0 1 0-13.599102 0Z" fill="#FFFA5F" opacity=".833" p-id="1497"></path><path d="M582.244486 611.275364m-5.411888 0a5.411888 5.411888 0 1 0 10.823776 0 5.411888 5.411888 0 1 0-10.823776 0Z" fill="#FFFA5F" opacity=".74" p-id="1498"></path><path d="M478.495103 611.275364m-12.345421 0a12.345421 12.345421 0 1 0 24.690841 0 12.345421 12.345421 0 1 0-24.690841 0Z" fill="#FFFA5F" opacity=".167" p-id="1499"></path><path d="M478.495103 611.275364m-10.957757 0a10.957757 10.957757 0 1 0 21.915514 0 10.957757 10.957757 0 1 0-21.915514 0Z" fill="#FFFA5F" opacity=".333" p-id="1500"></path><path d="M478.495103 611.275364m-9.570094 0a9.570093 9.570093 0 1 0 19.140187 0 9.570093 9.570093 0 1 0-19.140187 0Z" fill="#FFFA5F" opacity=".5" p-id="1501"></path><path d="M478.495103 611.270579m-8.18243 0a8.18243 8.18243 0 1 0 16.36486 0 8.18243 8.18243 0 1 0-16.36486 0Z" fill="#FFFA5F" opacity=".667" p-id="1502"></path><path d="M478.495103 611.275364m-6.799552 0a6.799551 6.799551 0 1 0 13.599103 0 6.799551 6.799551 0 1 0-13.599103 0Z" fill="#FFFA5F" opacity=".833" p-id="1503"></path><path d="M478.495103 611.275364m-5.411888 0a5.411888 5.411888 0 1 0 10.823776 0 5.411888 5.411888 0 1 0-10.823776 0Z" fill="#FFFA5F" opacity=".74" p-id="1504"></path><path d="M377.032972 706.722692m-12.345421 0a12.345421 12.345421 0 1 0 24.690842 0 12.345421 12.345421 0 1 0-24.690842 0Z" fill="#FFFA5F" opacity=".167" p-id="1505"></path><path d="M377.032972 706.727477m-10.957757 0a10.957757 10.957757 0 1 0 21.915514 0 10.957757 10.957757 0 1 0-21.915514 0Z" fill="#FFFA5F" opacity=".333" p-id="1506"></path><path d="M377.032972 706.722692m-9.574879 0a9.574879 9.574879 0 1 0 19.149757 0 9.574879 9.574879 0 1 0-19.149757 0Z" fill="#FFFA5F" opacity=".5" p-id="1507"></path><path d="M377.032972 706.727477m-8.18243 0a8.18243 8.18243 0 1 0 16.36486 0 8.18243 8.18243 0 1 0-16.36486 0Z" fill="#FFFA5F" opacity=".667" p-id="1508"></path><path d="M377.032972 706.722692m-6.799551 0a6.799551 6.799551 0 1 0 13.599102 0 6.799551 6.799551 0 1 0-13.599102 0Z" fill="#FFFA5F" opacity=".833" p-id="1509"></path><path d="M377.032972 706.727477m-5.407103 0a5.407103 5.407103 0 1 0 10.814206 0 5.407103 5.407103 0 1 0-10.814206 0Z" fill="#FFFA5F" opacity=".74" p-id="1510"></path><path d="M891.832224 706.717907m-12.340635 0a12.340636 12.340636 0 1 0 24.681271 0 12.340636 12.340636 0 1 0-24.681271 0Z" fill="#FFFA5F" opacity=".167" p-id="1511"></path><path d="M891.832224 706.727477m-10.957757 0a10.957757 10.957757 0 1 0 21.915514 0 10.957757 10.957757 0 1 0-21.915514 0Z" fill="#FFFA5F" opacity=".333" p-id="1512"></path><path d="M891.832224 706.722692m-9.574878 0a9.574879 9.574879 0 1 0 19.149757 0 9.574879 9.574879 0 1 0-19.149757 0Z" fill="#FFFA5F" opacity=".5" p-id="1513"></path><path d="M891.832224 706.727477m-8.18243 0a8.18243 8.18243 0 1 0 16.36486 0 8.18243 8.18243 0 1 0-16.36486 0Z" fill="#FFFA5F" opacity=".667" p-id="1514"></path><path d="M891.832224 699.92314a6.794766 6.794766 0 1 1-0.004785 13.594318 6.794766 6.794766 0 0 1 0.004785-13.594318z" fill="#FFFA5F" opacity=".833" p-id="1515"></path><path d="M891.832224 706.727477m-5.407103 0a5.407103 5.407103 0 1 0 10.814206 0 5.407103 5.407103 0 1 0-10.814206 0Z" fill="#FFFA5F" opacity=".74" p-id="1516"></path><path d="M789.838953 706.717907m-12.340635 0a12.340636 12.340636 0 1 0 24.681271 0 12.340636 12.340636 0 1 0-24.681271 0Z" fill="#FFFA5F" opacity=".167" p-id="1517"></path><path d="M789.838953 706.727477m-10.957757 0a10.957757 10.957757 0 1 0 21.915514 0 10.957757 10.957757 0 1 0-21.915514 0Z" fill="#FFFA5F" opacity=".333" p-id="1518"></path><path d="M789.838953 706.722692m-9.574878 0a9.574879 9.574879 0 1 0 19.149757 0 9.574879 9.574879 0 1 0-19.149757 0Z" fill="#FFFA5F" opacity=".5" p-id="1519"></path><path d="M789.838953 706.727477m-8.18243 0a8.18243 8.18243 0 1 0 16.36486 0 8.18243 8.18243 0 1 0-16.36486 0Z" fill="#FFFA5F" opacity=".667" p-id="1520"></path><path d="M789.838953 699.92314a6.799551 6.799551 0 1 1 0.00957 13.599103 6.799551 6.799551 0 0 1-0.00957-13.599103z" fill="#FFFA5F" opacity=".833" p-id="1521"></path><path d="M789.838953 706.727477m-5.407103 0a5.407103 5.407103 0 1 0 10.814206 0 5.407103 5.407103 0 1 0-10.814206 0Z" fill="#FFFA5F" opacity=".74" p-id="1522"></path><path d="M685.60628 706.717907m-12.340635 0a12.340636 12.340636 0 1 0 24.681271 0 12.340636 12.340636 0 1 0-24.681271 0Z" fill="#FFFA5F" opacity=".167" p-id="1523"></path><path d="M685.60628 706.717907m-10.952972 0a10.952972 10.952972 0 1 0 21.905944 0 10.952972 10.952972 0 1 0-21.905944 0Z" fill="#FFFA5F" opacity=".333" p-id="1524"></path><path d="M685.60628 706.722692m-9.574878 0a9.574879 9.574879 0 1 0 19.149757 0 9.574879 9.574879 0 1 0-19.149757 0Z" fill="#FFFA5F" opacity=".5" p-id="1525"></path><path d="M685.60628 706.727477m-8.18243 0a8.18243 8.18243 0 1 0 16.36486 0 8.18243 8.18243 0 1 0-16.36486 0Z" fill="#FFFA5F" opacity=".667" p-id="1526"></path><path d="M685.60628 706.722692m-6.799551 0a6.799551 6.799551 0 1 0 13.599103 0 6.799551 6.799551 0 1 0-13.599103 0Z" fill="#FFFA5F" opacity=".833" p-id="1527"></path><path d="M685.60628 706.722692m-5.411887 0a5.411888 5.411888 0 1 0 10.823775 0 5.411888 5.411888 0 1 0-10.823775 0Z" fill="#FFFA5F" opacity=".74" p-id="1528"></path><path d="M583.684785 706.717907m-12.340635 0a12.340636 12.340636 0 1 0 24.681271 0 12.340636 12.340636 0 1 0-24.681271 0Z" fill="#FFFA5F" opacity=".167" p-id="1529"></path><path d="M583.684785 706.727477m-10.957757 0a10.957757 10.957757 0 1 0 21.915514 0 10.957757 10.957757 0 1 0-21.915514 0Z" fill="#FFFA5F" opacity=".333" p-id="1530"></path><path d="M583.684785 706.722692m-9.574878 0a9.574879 9.574879 0 1 0 19.149757 0 9.574879 9.574879 0 1 0-19.149757 0Z" fill="#FFFA5F" opacity=".5" p-id="1531"></path><path d="M583.684785 706.727477m-8.18243 0a8.18243 8.18243 0 1 0 16.36486 0 8.18243 8.18243 0 1 0-16.36486 0Z" fill="#FFFA5F" opacity=".667" p-id="1532"></path><path d="M583.684785 706.722692m-6.799551 0a6.799551 6.799551 0 1 0 13.599102 0 6.799551 6.799551 0 1 0-13.599102 0Z" fill="#FFFA5F" opacity=".833" p-id="1533"></path><path d="M583.684785 706.727477m-5.407103 0a5.407103 5.407103 0 1 0 10.814206 0 5.407103 5.407103 0 1 0-10.814206 0Z" fill="#FFFA5F" opacity=".74" p-id="1534"></path><path d="M479.930617 706.717907m-12.340636 0a12.340636 12.340636 0 1 0 24.681271 0 12.340636 12.340636 0 1 0-24.681271 0Z" fill="#FFFA5F" opacity=".167" p-id="1535"></path><path d="M479.930617 706.727477m-10.957757 0a10.957757 10.957757 0 1 0 21.915514 0 10.957757 10.957757 0 1 0-21.915514 0Z" fill="#FFFA5F" opacity=".333" p-id="1536"></path><path d="M479.930617 706.722692m-9.574879 0a9.574879 9.574879 0 1 0 19.149757 0 9.574879 9.574879 0 1 0-19.149757 0Z" fill="#FFFA5F" opacity=".5" p-id="1537"></path><path d="M479.930617 706.727477m-8.18243 0a8.18243 8.18243 0 1 0 16.36486 0 8.18243 8.18243 0 1 0-16.36486 0Z" fill="#FFFA5F" opacity=".667" p-id="1538"></path><path d="M479.930617 706.722692m-6.799552 0a6.799551 6.799551 0 1 0 13.599103 0 6.799551 6.799551 0 1 0-13.599103 0Z" fill="#FFFA5F" opacity=".833" p-id="1539"></path><path d="M479.930617 706.727477m-5.407103 0a5.407103 5.407103 0 1 0 10.814206 0 5.407103 5.407103 0 1 0-10.814206 0Z" fill="#FFFA5F" opacity=".74" p-id="1540"></path><path d="M489.711252 656.398355c-2.784897 0-5.206131-0.430654-7.124934-0.952224-28.782056-7.880972-37.112822-53.501607-53.582954-181.855701-3.287327-25.62871-6.67514-52.037383-10.421831-77.077533-5.086505 42.223252-10.503178 74.216075-14.934131 100.399851-2.387738 14.101533-4.450093 26.284262-5.895178 36.868785-3.325607 24.298467-26.332112 40.093907-68.387888 46.950878-26.13114 4.258692-51.204785 3.804112-52.26228 3.775402a19.140187 19.140187 0 0 1 0.775178-38.270804c43.711402 0.736897 80.919925-10.072523 81.953495-17.642467 1.52643-11.187439 3.636636-23.642916 6.081794-38.069832 4.808972-28.408822 10.79028-63.760748 16.197384-111.639925 4.201271-37.275514 15.938991-56.372636 34.878205-56.769794 28.676785-0.555065 35.524187 43.194617 38.084187 59.683888 4.363963 28.107364 8.20157 58.004336 11.909981 86.915588 6.09615 47.505944 14.852785 115.783776 24.422879 142.192449 6.292336-9.388262 11.287925-19.733533 16.144748-29.801271 10.397907-21.54228 20.221607-41.888299 41.577271-47.563365 14.178093-3.765832 29.748636 0.349308 47.606429 12.599028 13.575178 9.311701 19.728748 10.613234 21.441795 10.780711 2.272897-2.392523 5.732486-10.460112 8.077159-15.910281 2.894953-6.742131 6.177495-14.388636 10.646729-21.977719 13.072748-22.202617 28.040374-32.198579 44.57271-29.710355 23.06871 3.483514 38.754093 29.605084 52.439327 87.336672l0.177047 0.736898a31.294206 31.294206 0 0 0 2.516934-4.507514c13.240224-28.686355 20.503925-90.236411 22.188262-111.534655a18.996636 18.996636 0 0 1 0.736897-3.971588c3.339963-11.192224 16.360075-47.558579 44.008075-47.55858h0.425869c23.709907 0.315813 40.41929 24.906168 55.865421 82.216673 7.684785 28.542804 12.986617 43.677907 16.446205 51.707215l0.555066-0.588561c11.847776-12.546393 31.677009-33.547963 64.588561-33.547962h39.050766a19.140187 19.140187 0 0 1 0 38.280374h-39.050766c-16.41271 0-26.753196 10.952972-36.758729 21.547065-9.22557 9.771065-20.724037 21.925084-37.304225 17.738168-17.934355-4.517084-27.911178-23.623776-44.491364-85.178617-8.292486-30.772636-15.230804-44.529645-19.188038-50.472673-2.416449 3.890243-5.09129 9.646654-6.914392 15.077683-1.201047 13.80486-8.091514 84.814953-25.403813 122.320149-9.531813 20.657047-25.896673 32.471327-42.720897 30.758281-7.349832-0.732112-25.188486-5.536299-31.983253-34.189159-8.799701-37.112822-16.508411-51.19043-20.283813-56.26258-1.55514 1.713047-3.756262 4.574505-6.498093 9.230355-3.234692 5.488449-5.885607 11.670729-8.455178 17.647253-6.498093 15.144673-13.86228 32.308636-32.342131 37.663103-19.068411 5.521944-38.878505-5.684636-54.008822-16.058617-11.905196-8.168075-16.082542-7.172785-16.116037-7.172785-4.368748 1.157981-12.24015 17.465421-16.943851 27.21256-6.502879 13.469907-13.87185 28.738991-24.867888 42.845309-9.890692 12.694729-19.95843 15.800224-27.427888 15.800224z" fill="#FFFFFF" p-id="1541"></path><path d="M170.275888 290.289645c0-50.338692 41.189682-91.533159 91.528374-91.533159h754.24299c37.34729 0 69.646355 22.685907 83.834019 54.946692v-24.992299c0-50.343477-41.180112-91.533159-91.533159-91.533159H254.114692c-50.343477 0-91.533159 41.194467-91.533159 91.533159v582.158355c0 12.986617 2.765757 25.365533 7.69914 36.586467l-0.004785-557.166056z" fill="#6E6E96" opacity=".15" p-id="1542"></path></svg>